<mxfile host="www.draw.io" modified="2019-12-23T18:07:34.598Z" agent="Mozilla/5.0 (Windows NT 10.0; WOW64) AppleWebKit/537.36 (KHTML, like Gecko) Chrome/78.0.3904.108 YaBrowser/19.12.2.252 Yowser/2.5 Safari/537.36" etag="535WY-n3OnhbGVF46OL7" version="12.4.3" type="github" pages="1">
  <diagram name="Page-1" id="2a216829-ef6e-dabb-86c1-c78162f3ba2b">
    <mxGraphModel dx="948" dy="554" grid="1" gridSize="10" guides="1" tooltips="1" connect="1" arrows="1" fold="1" page="1" pageScale="1" pageWidth="850" pageHeight="1100" background="#ffffff" math="0" shadow="0">
      <root>
        <mxCell id="0"/>
        <mxCell id="1" parent="0"/>
        <mxCell id="ekykvrXrYyQtkSd145x7-1" value="" style="endArrow=none;html=1;" edge="1" parent="1">
          <mxGeometry width="50" height="50" relative="1" as="geometry">
            <mxPoint x="200" y="600" as="sourcePoint"/>
            <mxPoint x="200" y="120" as="targetPoint"/>
          </mxGeometry>
        </mxCell>
        <mxCell id="ekykvrXrYyQtkSd145x7-2" value="&lt;font style=&quot;font-size: 23px&quot;&gt;&amp;amp;&lt;/font&gt;" style="rounded=0;whiteSpace=wrap;html=1;" vertex="1" parent="1">
          <mxGeometry x="240" y="120" width="40" height="80" as="geometry"/>
        </mxCell>
        <mxCell id="ekykvrXrYyQtkSd145x7-3" value="" style="endArrow=none;html=1;entryX=0;entryY=0.25;entryDx=0;entryDy=0;" edge="1" parent="1" target="ekykvrXrYyQtkSd145x7-2">
          <mxGeometry width="50" height="50" relative="1" as="geometry">
            <mxPoint x="200" y="140" as="sourcePoint"/>
            <mxPoint x="250" y="90" as="targetPoint"/>
          </mxGeometry>
        </mxCell>
        <mxCell id="ekykvrXrYyQtkSd145x7-4" value="" style="endArrow=none;html=1;entryX=0;entryY=0.25;entryDx=0;entryDy=0;" edge="1" parent="1">
          <mxGeometry width="50" height="50" relative="1" as="geometry">
            <mxPoint x="200" y="170" as="sourcePoint"/>
            <mxPoint x="240" y="170" as="targetPoint"/>
          </mxGeometry>
        </mxCell>
        <mxCell id="ekykvrXrYyQtkSd145x7-5" value="" style="endArrow=none;html=1;entryX=0;entryY=0.25;entryDx=0;entryDy=0;" edge="1" parent="1">
          <mxGeometry width="50" height="50" relative="1" as="geometry">
            <mxPoint x="160" y="120" as="sourcePoint"/>
            <mxPoint x="200" y="120" as="targetPoint"/>
          </mxGeometry>
        </mxCell>
        <mxCell id="ekykvrXrYyQtkSd145x7-6" value="" style="endArrow=none;html=1;entryX=0;entryY=0.25;entryDx=0;entryDy=0;" edge="1" parent="1">
          <mxGeometry width="50" height="50" relative="1" as="geometry">
            <mxPoint x="160" y="159.88" as="sourcePoint"/>
            <mxPoint x="200" y="159.88" as="targetPoint"/>
          </mxGeometry>
        </mxCell>
        <mxCell id="ekykvrXrYyQtkSd145x7-7" value="" style="endArrow=none;html=1;entryX=0;entryY=0.25;entryDx=0;entryDy=0;" edge="1" parent="1">
          <mxGeometry width="50" height="50" relative="1" as="geometry">
            <mxPoint x="160" y="200" as="sourcePoint"/>
            <mxPoint x="200" y="200" as="targetPoint"/>
          </mxGeometry>
        </mxCell>
        <mxCell id="ekykvrXrYyQtkSd145x7-8" value="" style="endArrow=none;html=1;entryX=0;entryY=0.25;entryDx=0;entryDy=0;" edge="1" parent="1">
          <mxGeometry width="50" height="50" relative="1" as="geometry">
            <mxPoint x="160" y="240" as="sourcePoint"/>
            <mxPoint x="200" y="240" as="targetPoint"/>
          </mxGeometry>
        </mxCell>
        <mxCell id="ekykvrXrYyQtkSd145x7-9" value="x0" style="text;html=1;align=center;verticalAlign=middle;resizable=0;points=[];;autosize=1;" vertex="1" parent="1">
          <mxGeometry x="165" y="100" width="30" height="20" as="geometry"/>
        </mxCell>
        <mxCell id="ekykvrXrYyQtkSd145x7-10" value="!x0" style="text;html=1;align=center;verticalAlign=middle;resizable=0;points=[];;autosize=1;" vertex="1" parent="1">
          <mxGeometry x="165" y="140" width="30" height="20" as="geometry"/>
        </mxCell>
        <mxCell id="ekykvrXrYyQtkSd145x7-12" value="x1" style="text;html=1;align=center;verticalAlign=middle;resizable=0;points=[];;autosize=1;" vertex="1" parent="1">
          <mxGeometry x="165" y="180" width="30" height="20" as="geometry"/>
        </mxCell>
        <mxCell id="ekykvrXrYyQtkSd145x7-13" value="!x1" style="text;html=1;align=center;verticalAlign=middle;resizable=0;points=[];;autosize=1;" vertex="1" parent="1">
          <mxGeometry x="165" y="220" width="30" height="20" as="geometry"/>
        </mxCell>
        <mxCell id="ekykvrXrYyQtkSd145x7-14" value="!x0" style="text;html=1;align=center;verticalAlign=middle;resizable=0;points=[];;autosize=1;" vertex="1" parent="1">
          <mxGeometry x="210" y="120" width="30" height="20" as="geometry"/>
        </mxCell>
        <mxCell id="ekykvrXrYyQtkSd145x7-15" value="x1" style="text;html=1;align=center;verticalAlign=middle;resizable=0;points=[];;autosize=1;" vertex="1" parent="1">
          <mxGeometry x="210" y="150" width="30" height="20" as="geometry"/>
        </mxCell>
        <mxCell id="ekykvrXrYyQtkSd145x7-16" value="" style="endArrow=none;html=1;entryX=0;entryY=0.25;entryDx=0;entryDy=0;" edge="1" parent="1">
          <mxGeometry width="50" height="50" relative="1" as="geometry">
            <mxPoint x="280" y="159.72" as="sourcePoint"/>
            <mxPoint x="320" y="159.72" as="targetPoint"/>
          </mxGeometry>
        </mxCell>
        <mxCell id="ekykvrXrYyQtkSd145x7-17" value="&lt;font style=&quot;font-size: 23px&quot;&gt;&amp;amp;&lt;/font&gt;" style="rounded=0;whiteSpace=wrap;html=1;" vertex="1" parent="1">
          <mxGeometry x="240" y="240" width="40" height="80" as="geometry"/>
        </mxCell>
        <mxCell id="ekykvrXrYyQtkSd145x7-18" value="" style="endArrow=none;html=1;entryX=0;entryY=0.25;entryDx=0;entryDy=0;" edge="1" target="ekykvrXrYyQtkSd145x7-17" parent="1">
          <mxGeometry width="50" height="50" relative="1" as="geometry">
            <mxPoint x="200" y="260" as="sourcePoint"/>
            <mxPoint x="250" y="210" as="targetPoint"/>
          </mxGeometry>
        </mxCell>
        <mxCell id="ekykvrXrYyQtkSd145x7-19" value="" style="endArrow=none;html=1;entryX=0;entryY=0.25;entryDx=0;entryDy=0;" edge="1" parent="1">
          <mxGeometry width="50" height="50" relative="1" as="geometry">
            <mxPoint x="200" y="290" as="sourcePoint"/>
            <mxPoint x="240" y="290" as="targetPoint"/>
          </mxGeometry>
        </mxCell>
        <mxCell id="ekykvrXrYyQtkSd145x7-20" value="x0" style="text;html=1;align=center;verticalAlign=middle;resizable=0;points=[];;autosize=1;" vertex="1" parent="1">
          <mxGeometry x="210" y="240" width="30" height="20" as="geometry"/>
        </mxCell>
        <mxCell id="ekykvrXrYyQtkSd145x7-21" value="!x1" style="text;html=1;align=center;verticalAlign=middle;resizable=0;points=[];;autosize=1;" vertex="1" parent="1">
          <mxGeometry x="210" y="270" width="30" height="20" as="geometry"/>
        </mxCell>
        <mxCell id="ekykvrXrYyQtkSd145x7-22" value="" style="endArrow=none;html=1;entryX=0;entryY=0.25;entryDx=0;entryDy=0;" edge="1" parent="1">
          <mxGeometry width="50" height="50" relative="1" as="geometry">
            <mxPoint x="280" y="279.72" as="sourcePoint"/>
            <mxPoint x="320" y="279.72" as="targetPoint"/>
          </mxGeometry>
        </mxCell>
        <mxCell id="ekykvrXrYyQtkSd145x7-23" value="&lt;font style=&quot;font-size: 23px&quot;&gt;&amp;amp;&lt;/font&gt;" style="rounded=0;whiteSpace=wrap;html=1;" vertex="1" parent="1">
          <mxGeometry x="240" y="360" width="40" height="80" as="geometry"/>
        </mxCell>
        <mxCell id="ekykvrXrYyQtkSd145x7-24" value="" style="endArrow=none;html=1;entryX=0;entryY=0.25;entryDx=0;entryDy=0;" edge="1" target="ekykvrXrYyQtkSd145x7-23" parent="1">
          <mxGeometry width="50" height="50" relative="1" as="geometry">
            <mxPoint x="200" y="380" as="sourcePoint"/>
            <mxPoint x="250" y="330" as="targetPoint"/>
          </mxGeometry>
        </mxCell>
        <mxCell id="ekykvrXrYyQtkSd145x7-25" value="" style="endArrow=none;html=1;entryX=0;entryY=0.25;entryDx=0;entryDy=0;" edge="1" parent="1">
          <mxGeometry width="50" height="50" relative="1" as="geometry">
            <mxPoint x="200" y="410" as="sourcePoint"/>
            <mxPoint x="240" y="410" as="targetPoint"/>
          </mxGeometry>
        </mxCell>
        <mxCell id="ekykvrXrYyQtkSd145x7-26" value="!x0" style="text;html=1;align=center;verticalAlign=middle;resizable=0;points=[];;autosize=1;" vertex="1" parent="1">
          <mxGeometry x="210" y="360" width="30" height="20" as="geometry"/>
        </mxCell>
        <mxCell id="ekykvrXrYyQtkSd145x7-27" value="!x1" style="text;html=1;align=center;verticalAlign=middle;resizable=0;points=[];;autosize=1;" vertex="1" parent="1">
          <mxGeometry x="210" y="390" width="30" height="20" as="geometry"/>
        </mxCell>
        <mxCell id="ekykvrXrYyQtkSd145x7-28" value="" style="endArrow=none;html=1;entryX=0;entryY=0.25;entryDx=0;entryDy=0;" edge="1" parent="1">
          <mxGeometry width="50" height="50" relative="1" as="geometry">
            <mxPoint x="280" y="399.72" as="sourcePoint"/>
            <mxPoint x="320" y="399.72" as="targetPoint"/>
          </mxGeometry>
        </mxCell>
        <mxCell id="ekykvrXrYyQtkSd145x7-29" value="&lt;font style=&quot;font-size: 23px&quot;&gt;&amp;amp;&lt;/font&gt;" style="rounded=0;whiteSpace=wrap;html=1;" vertex="1" parent="1">
          <mxGeometry x="240" y="480" width="40" height="80" as="geometry"/>
        </mxCell>
        <mxCell id="ekykvrXrYyQtkSd145x7-30" value="" style="endArrow=none;html=1;entryX=0;entryY=0.25;entryDx=0;entryDy=0;" edge="1" target="ekykvrXrYyQtkSd145x7-29" parent="1">
          <mxGeometry width="50" height="50" relative="1" as="geometry">
            <mxPoint x="200" y="500" as="sourcePoint"/>
            <mxPoint x="250" y="450" as="targetPoint"/>
          </mxGeometry>
        </mxCell>
        <mxCell id="ekykvrXrYyQtkSd145x7-31" value="" style="endArrow=none;html=1;entryX=0;entryY=0.25;entryDx=0;entryDy=0;" edge="1" parent="1">
          <mxGeometry width="50" height="50" relative="1" as="geometry">
            <mxPoint x="200" y="530" as="sourcePoint"/>
            <mxPoint x="240" y="530" as="targetPoint"/>
          </mxGeometry>
        </mxCell>
        <mxCell id="ekykvrXrYyQtkSd145x7-32" value="x0" style="text;html=1;align=center;verticalAlign=middle;resizable=0;points=[];;autosize=1;" vertex="1" parent="1">
          <mxGeometry x="210" y="480" width="30" height="20" as="geometry"/>
        </mxCell>
        <mxCell id="ekykvrXrYyQtkSd145x7-33" value="x1" style="text;html=1;align=center;verticalAlign=middle;resizable=0;points=[];;autosize=1;" vertex="1" parent="1">
          <mxGeometry x="210" y="510" width="30" height="20" as="geometry"/>
        </mxCell>
        <mxCell id="ekykvrXrYyQtkSd145x7-34" value="" style="endArrow=none;html=1;entryX=0;entryY=0.25;entryDx=0;entryDy=0;" edge="1" parent="1">
          <mxGeometry width="50" height="50" relative="1" as="geometry">
            <mxPoint x="280" y="519.72" as="sourcePoint"/>
            <mxPoint x="320" y="519.72" as="targetPoint"/>
          </mxGeometry>
        </mxCell>
        <mxCell id="ekykvrXrYyQtkSd145x7-35" value="" style="endArrow=none;html=1;" edge="1" parent="1">
          <mxGeometry width="50" height="50" relative="1" as="geometry">
            <mxPoint x="200" y="600" as="sourcePoint"/>
            <mxPoint x="320" y="600" as="targetPoint"/>
          </mxGeometry>
        </mxCell>
        <mxCell id="ekykvrXrYyQtkSd145x7-36" value="" style="endArrow=none;html=1;" edge="1" parent="1">
          <mxGeometry width="50" height="50" relative="1" as="geometry">
            <mxPoint x="320" y="600" as="sourcePoint"/>
            <mxPoint x="320" y="120" as="targetPoint"/>
          </mxGeometry>
        </mxCell>
        <mxCell id="ekykvrXrYyQtkSd145x7-37" value="y0" style="text;html=1;align=center;verticalAlign=middle;resizable=0;points=[];;autosize=1;" vertex="1" parent="1">
          <mxGeometry x="285" y="140" width="30" height="20" as="geometry"/>
        </mxCell>
        <mxCell id="ekykvrXrYyQtkSd145x7-38" value="y1" style="text;html=1;align=center;verticalAlign=middle;resizable=0;points=[];;autosize=1;" vertex="1" parent="1">
          <mxGeometry x="285" y="260" width="30" height="20" as="geometry"/>
        </mxCell>
        <mxCell id="ekykvrXrYyQtkSd145x7-39" value="y2" style="text;html=1;align=center;verticalAlign=middle;resizable=0;points=[];;autosize=1;" vertex="1" parent="1">
          <mxGeometry x="285" y="380" width="30" height="20" as="geometry"/>
        </mxCell>
        <mxCell id="ekykvrXrYyQtkSd145x7-40" value="y3" style="text;html=1;align=center;verticalAlign=middle;resizable=0;points=[];;autosize=1;" vertex="1" parent="1">
          <mxGeometry x="285" y="500" width="30" height="20" as="geometry"/>
        </mxCell>
        <mxCell id="ekykvrXrYyQtkSd145x7-41" value="&lt;font style=&quot;font-size: 23px&quot;&gt;&amp;amp;&lt;/font&gt;" style="rounded=0;whiteSpace=wrap;html=1;" vertex="1" parent="1">
          <mxGeometry x="440" y="120" width="40" height="80" as="geometry"/>
        </mxCell>
        <mxCell id="ekykvrXrYyQtkSd145x7-42" value="" style="endArrow=none;html=1;entryX=0;entryY=0.25;entryDx=0;entryDy=0;" edge="1" target="ekykvrXrYyQtkSd145x7-41" parent="1">
          <mxGeometry width="50" height="50" relative="1" as="geometry">
            <mxPoint x="320" y="140" as="sourcePoint"/>
            <mxPoint x="450" y="90" as="targetPoint"/>
          </mxGeometry>
        </mxCell>
        <mxCell id="ekykvrXrYyQtkSd145x7-43" value="" style="endArrow=none;html=1;entryX=0;entryY=0.25;entryDx=0;entryDy=0;" edge="1" parent="1">
          <mxGeometry width="50" height="50" relative="1" as="geometry">
            <mxPoint x="400" y="170" as="sourcePoint"/>
            <mxPoint x="440" y="170" as="targetPoint"/>
          </mxGeometry>
        </mxCell>
        <mxCell id="ekykvrXrYyQtkSd145x7-44" value="y0" style="text;html=1;align=center;verticalAlign=middle;resizable=0;points=[];;autosize=1;" vertex="1" parent="1">
          <mxGeometry x="410" y="120" width="30" height="20" as="geometry"/>
        </mxCell>
        <mxCell id="ekykvrXrYyQtkSd145x7-45" value="x1" style="text;html=1;align=center;verticalAlign=middle;resizable=0;points=[];;autosize=1;" vertex="1" parent="1">
          <mxGeometry x="410" y="150" width="30" height="20" as="geometry"/>
        </mxCell>
        <mxCell id="ekykvrXrYyQtkSd145x7-46" value="" style="endArrow=none;html=1;entryX=0;entryY=0.25;entryDx=0;entryDy=0;" edge="1" parent="1">
          <mxGeometry width="50" height="50" relative="1" as="geometry">
            <mxPoint x="480" y="159.72000000000003" as="sourcePoint"/>
            <mxPoint x="520" y="159.72000000000003" as="targetPoint"/>
          </mxGeometry>
        </mxCell>
        <mxCell id="ekykvrXrYyQtkSd145x7-47" value="y0" style="text;html=1;align=center;verticalAlign=middle;resizable=0;points=[];;autosize=1;" vertex="1" parent="1">
          <mxGeometry x="485" y="140" width="30" height="20" as="geometry"/>
        </mxCell>
        <mxCell id="ekykvrXrYyQtkSd145x7-48" value="&lt;font style=&quot;font-size: 23px&quot;&gt;&amp;amp;&lt;/font&gt;" style="rounded=0;whiteSpace=wrap;html=1;" vertex="1" parent="1">
          <mxGeometry x="440" y="240" width="40" height="80" as="geometry"/>
        </mxCell>
        <mxCell id="ekykvrXrYyQtkSd145x7-49" value="" style="endArrow=none;html=1;entryX=0;entryY=0.25;entryDx=0;entryDy=0;" edge="1" target="ekykvrXrYyQtkSd145x7-48" parent="1">
          <mxGeometry width="50" height="50" relative="1" as="geometry">
            <mxPoint x="320" y="260" as="sourcePoint"/>
            <mxPoint x="450" y="210" as="targetPoint"/>
          </mxGeometry>
        </mxCell>
        <mxCell id="ekykvrXrYyQtkSd145x7-50" value="" style="endArrow=none;html=1;entryX=0;entryY=0.25;entryDx=0;entryDy=0;" edge="1" parent="1">
          <mxGeometry width="50" height="50" relative="1" as="geometry">
            <mxPoint x="400" y="290" as="sourcePoint"/>
            <mxPoint x="440" y="290" as="targetPoint"/>
          </mxGeometry>
        </mxCell>
        <mxCell id="ekykvrXrYyQtkSd145x7-51" value="y1" style="text;html=1;align=center;verticalAlign=middle;resizable=0;points=[];;autosize=1;" vertex="1" parent="1">
          <mxGeometry x="410" y="240" width="30" height="20" as="geometry"/>
        </mxCell>
        <mxCell id="ekykvrXrYyQtkSd145x7-52" value="x1" style="text;html=1;align=center;verticalAlign=middle;resizable=0;points=[];;autosize=1;" vertex="1" parent="1">
          <mxGeometry x="410" y="270" width="30" height="20" as="geometry"/>
        </mxCell>
        <mxCell id="ekykvrXrYyQtkSd145x7-53" value="" style="endArrow=none;html=1;entryX=0;entryY=0.25;entryDx=0;entryDy=0;" edge="1" parent="1">
          <mxGeometry width="50" height="50" relative="1" as="geometry">
            <mxPoint x="480" y="279.72" as="sourcePoint"/>
            <mxPoint x="520" y="279.72" as="targetPoint"/>
          </mxGeometry>
        </mxCell>
        <mxCell id="ekykvrXrYyQtkSd145x7-54" value="y0" style="text;html=1;align=center;verticalAlign=middle;resizable=0;points=[];;autosize=1;" vertex="1" parent="1">
          <mxGeometry x="485" y="260" width="30" height="20" as="geometry"/>
        </mxCell>
        <mxCell id="ekykvrXrYyQtkSd145x7-55" value="&lt;font style=&quot;font-size: 23px&quot;&gt;&amp;amp;&lt;/font&gt;" style="rounded=0;whiteSpace=wrap;html=1;" vertex="1" parent="1">
          <mxGeometry x="440" y="360" width="40" height="80" as="geometry"/>
        </mxCell>
        <mxCell id="ekykvrXrYyQtkSd145x7-56" value="" style="endArrow=none;html=1;entryX=0;entryY=0.25;entryDx=0;entryDy=0;" edge="1" target="ekykvrXrYyQtkSd145x7-55" parent="1">
          <mxGeometry width="50" height="50" relative="1" as="geometry">
            <mxPoint x="320" y="380" as="sourcePoint"/>
            <mxPoint x="450" y="330" as="targetPoint"/>
          </mxGeometry>
        </mxCell>
        <mxCell id="ekykvrXrYyQtkSd145x7-57" value="" style="endArrow=none;html=1;entryX=0;entryY=0.25;entryDx=0;entryDy=0;" edge="1" parent="1">
          <mxGeometry width="50" height="50" relative="1" as="geometry">
            <mxPoint x="400" y="410" as="sourcePoint"/>
            <mxPoint x="440" y="410" as="targetPoint"/>
          </mxGeometry>
        </mxCell>
        <mxCell id="ekykvrXrYyQtkSd145x7-58" value="y2" style="text;html=1;align=center;verticalAlign=middle;resizable=0;points=[];;autosize=1;" vertex="1" parent="1">
          <mxGeometry x="410" y="360" width="30" height="20" as="geometry"/>
        </mxCell>
        <mxCell id="ekykvrXrYyQtkSd145x7-59" value="x1" style="text;html=1;align=center;verticalAlign=middle;resizable=0;points=[];;autosize=1;" vertex="1" parent="1">
          <mxGeometry x="410" y="390" width="30" height="20" as="geometry"/>
        </mxCell>
        <mxCell id="ekykvrXrYyQtkSd145x7-60" value="" style="endArrow=none;html=1;entryX=0;entryY=0.25;entryDx=0;entryDy=0;" edge="1" parent="1">
          <mxGeometry width="50" height="50" relative="1" as="geometry">
            <mxPoint x="480" y="399.72" as="sourcePoint"/>
            <mxPoint x="520" y="399.72" as="targetPoint"/>
          </mxGeometry>
        </mxCell>
        <mxCell id="ekykvrXrYyQtkSd145x7-61" value="y0" style="text;html=1;align=center;verticalAlign=middle;resizable=0;points=[];;autosize=1;" vertex="1" parent="1">
          <mxGeometry x="485" y="380" width="30" height="20" as="geometry"/>
        </mxCell>
        <mxCell id="ekykvrXrYyQtkSd145x7-62" value="&lt;font style=&quot;font-size: 23px&quot;&gt;&amp;amp;&lt;/font&gt;" style="rounded=0;whiteSpace=wrap;html=1;" vertex="1" parent="1">
          <mxGeometry x="440" y="480" width="40" height="80" as="geometry"/>
        </mxCell>
        <mxCell id="ekykvrXrYyQtkSd145x7-63" value="" style="endArrow=none;html=1;entryX=0;entryY=0.25;entryDx=0;entryDy=0;" edge="1" target="ekykvrXrYyQtkSd145x7-62" parent="1">
          <mxGeometry width="50" height="50" relative="1" as="geometry">
            <mxPoint x="320" y="500" as="sourcePoint"/>
            <mxPoint x="450" y="450" as="targetPoint"/>
          </mxGeometry>
        </mxCell>
        <mxCell id="ekykvrXrYyQtkSd145x7-64" value="" style="endArrow=none;html=1;entryX=0;entryY=0.25;entryDx=0;entryDy=0;" edge="1" parent="1">
          <mxGeometry width="50" height="50" relative="1" as="geometry">
            <mxPoint x="400" y="530" as="sourcePoint"/>
            <mxPoint x="440" y="530" as="targetPoint"/>
          </mxGeometry>
        </mxCell>
        <mxCell id="ekykvrXrYyQtkSd145x7-65" value="y3" style="text;html=1;align=center;verticalAlign=middle;resizable=0;points=[];;autosize=1;" vertex="1" parent="1">
          <mxGeometry x="410" y="480" width="30" height="20" as="geometry"/>
        </mxCell>
        <mxCell id="ekykvrXrYyQtkSd145x7-66" value="x1" style="text;html=1;align=center;verticalAlign=middle;resizable=0;points=[];;autosize=1;" vertex="1" parent="1">
          <mxGeometry x="410" y="510" width="30" height="20" as="geometry"/>
        </mxCell>
        <mxCell id="ekykvrXrYyQtkSd145x7-67" value="" style="endArrow=none;html=1;entryX=0;entryY=0.25;entryDx=0;entryDy=0;" edge="1" parent="1">
          <mxGeometry width="50" height="50" relative="1" as="geometry">
            <mxPoint x="480" y="519.72" as="sourcePoint"/>
            <mxPoint x="520" y="519.72" as="targetPoint"/>
          </mxGeometry>
        </mxCell>
        <mxCell id="ekykvrXrYyQtkSd145x7-68" value="y0" style="text;html=1;align=center;verticalAlign=middle;resizable=0;points=[];;autosize=1;" vertex="1" parent="1">
          <mxGeometry x="485" y="500" width="30" height="20" as="geometry"/>
        </mxCell>
        <mxCell id="ekykvrXrYyQtkSd145x7-69" value="" style="endArrow=none;html=1;" edge="1" parent="1">
          <mxGeometry width="50" height="50" relative="1" as="geometry">
            <mxPoint x="400" y="530" as="sourcePoint"/>
            <mxPoint x="400" y="49.999999999999886" as="targetPoint"/>
          </mxGeometry>
        </mxCell>
        <mxCell id="ekykvrXrYyQtkSd145x7-70" value="" style="triangle;whiteSpace=wrap;html=1;rotation=90;" vertex="1" parent="1">
          <mxGeometry x="395" y="40" width="15" height="20" as="geometry"/>
        </mxCell>
        <mxCell id="ekykvrXrYyQtkSd145x7-71" value="C" style="text;html=1;align=center;verticalAlign=middle;resizable=0;points=[];;autosize=1;" vertex="1" parent="1">
          <mxGeometry x="395" y="20" width="20" height="20" as="geometry"/>
        </mxCell>
        <mxCell id="ekykvrXrYyQtkSd145x7-72" value="" style="rounded=0;whiteSpace=wrap;html=1;" vertex="1" parent="1">
          <mxGeometry x="560" y="120" width="80" height="80" as="geometry"/>
        </mxCell>
        <mxCell id="ekykvrXrYyQtkSd145x7-73" value="&lt;font style=&quot;font-size: 20px&quot;&gt;D&lt;/font&gt;" style="rounded=0;whiteSpace=wrap;html=1;" vertex="1" parent="1">
          <mxGeometry x="560" y="120" width="40" height="40" as="geometry"/>
        </mxCell>
        <mxCell id="ekykvrXrYyQtkSd145x7-74" value="&lt;font style=&quot;font-size: 20px&quot;&gt;C&lt;/font&gt;" style="rounded=0;whiteSpace=wrap;html=1;" vertex="1" parent="1">
          <mxGeometry x="560" y="160" width="40" height="40" as="geometry"/>
        </mxCell>
        <mxCell id="ekykvrXrYyQtkSd145x7-76" value="" style="rounded=0;whiteSpace=wrap;html=1;" vertex="1" parent="1">
          <mxGeometry x="560" y="240" width="80" height="80" as="geometry"/>
        </mxCell>
        <mxCell id="ekykvrXrYyQtkSd145x7-77" value="&lt;font style=&quot;font-size: 20px&quot;&gt;D&lt;/font&gt;" style="rounded=0;whiteSpace=wrap;html=1;" vertex="1" parent="1">
          <mxGeometry x="560" y="240" width="40" height="40" as="geometry"/>
        </mxCell>
        <mxCell id="ekykvrXrYyQtkSd145x7-78" value="&lt;font style=&quot;font-size: 20px&quot;&gt;C&lt;/font&gt;" style="rounded=0;whiteSpace=wrap;html=1;" vertex="1" parent="1">
          <mxGeometry x="560" y="280" width="40" height="40" as="geometry"/>
        </mxCell>
        <mxCell id="ekykvrXrYyQtkSd145x7-79" value="" style="rounded=0;whiteSpace=wrap;html=1;" vertex="1" parent="1">
          <mxGeometry x="560" y="360" width="80" height="80" as="geometry"/>
        </mxCell>
        <mxCell id="ekykvrXrYyQtkSd145x7-80" value="&lt;font style=&quot;font-size: 20px&quot;&gt;D&lt;/font&gt;" style="rounded=0;whiteSpace=wrap;html=1;" vertex="1" parent="1">
          <mxGeometry x="560" y="360" width="40" height="40" as="geometry"/>
        </mxCell>
        <mxCell id="ekykvrXrYyQtkSd145x7-81" value="&lt;font style=&quot;font-size: 20px&quot;&gt;C&lt;/font&gt;" style="rounded=0;whiteSpace=wrap;html=1;" vertex="1" parent="1">
          <mxGeometry x="560" y="400" width="40" height="40" as="geometry"/>
        </mxCell>
        <mxCell id="ekykvrXrYyQtkSd145x7-82" value="" style="rounded=0;whiteSpace=wrap;html=1;" vertex="1" parent="1">
          <mxGeometry x="560" y="480" width="80" height="80" as="geometry"/>
        </mxCell>
        <mxCell id="ekykvrXrYyQtkSd145x7-83" value="&lt;font style=&quot;font-size: 20px&quot;&gt;D&lt;/font&gt;" style="rounded=0;whiteSpace=wrap;html=1;" vertex="1" parent="1">
          <mxGeometry x="560" y="480" width="40" height="40" as="geometry"/>
        </mxCell>
        <mxCell id="ekykvrXrYyQtkSd145x7-84" value="&lt;font style=&quot;font-size: 20px&quot;&gt;C&lt;/font&gt;" style="rounded=0;whiteSpace=wrap;html=1;" vertex="1" parent="1">
          <mxGeometry x="560" y="520" width="40" height="40" as="geometry"/>
        </mxCell>
        <mxCell id="ekykvrXrYyQtkSd145x7-85" value="" style="endArrow=none;html=1;" edge="1" parent="1">
          <mxGeometry width="50" height="50" relative="1" as="geometry">
            <mxPoint x="520" y="180" as="sourcePoint"/>
            <mxPoint x="520" y="160" as="targetPoint"/>
          </mxGeometry>
        </mxCell>
        <mxCell id="ekykvrXrYyQtkSd145x7-87" value="" style="endArrow=none;html=1;entryX=0;entryY=0.25;entryDx=0;entryDy=0;" edge="1" parent="1">
          <mxGeometry width="50" height="50" relative="1" as="geometry">
            <mxPoint x="520" y="179.82999999999998" as="sourcePoint"/>
            <mxPoint x="560" y="179.82999999999998" as="targetPoint"/>
          </mxGeometry>
        </mxCell>
        <mxCell id="ekykvrXrYyQtkSd145x7-88" value="" style="endArrow=none;html=1;" edge="1" parent="1">
          <mxGeometry width="50" height="50" relative="1" as="geometry">
            <mxPoint x="520" y="300" as="sourcePoint"/>
            <mxPoint x="520" y="280" as="targetPoint"/>
          </mxGeometry>
        </mxCell>
        <mxCell id="ekykvrXrYyQtkSd145x7-89" value="" style="endArrow=none;html=1;entryX=0;entryY=0.25;entryDx=0;entryDy=0;" edge="1" parent="1">
          <mxGeometry width="50" height="50" relative="1" as="geometry">
            <mxPoint x="520" y="299.8299999999999" as="sourcePoint"/>
            <mxPoint x="560" y="299.8299999999999" as="targetPoint"/>
          </mxGeometry>
        </mxCell>
        <mxCell id="ekykvrXrYyQtkSd145x7-90" value="" style="endArrow=none;html=1;" edge="1" parent="1">
          <mxGeometry width="50" height="50" relative="1" as="geometry">
            <mxPoint x="520" y="420" as="sourcePoint"/>
            <mxPoint x="520" y="400" as="targetPoint"/>
          </mxGeometry>
        </mxCell>
        <mxCell id="ekykvrXrYyQtkSd145x7-91" value="" style="endArrow=none;html=1;entryX=0;entryY=0.25;entryDx=0;entryDy=0;" edge="1" parent="1">
          <mxGeometry width="50" height="50" relative="1" as="geometry">
            <mxPoint x="520" y="419.8299999999999" as="sourcePoint"/>
            <mxPoint x="560" y="419.8299999999999" as="targetPoint"/>
          </mxGeometry>
        </mxCell>
        <mxCell id="ekykvrXrYyQtkSd145x7-92" value="" style="endArrow=none;html=1;" edge="1" parent="1">
          <mxGeometry width="50" height="50" relative="1" as="geometry">
            <mxPoint x="520" y="540" as="sourcePoint"/>
            <mxPoint x="520" y="520" as="targetPoint"/>
          </mxGeometry>
        </mxCell>
        <mxCell id="ekykvrXrYyQtkSd145x7-93" value="" style="endArrow=none;html=1;entryX=0;entryY=0.25;entryDx=0;entryDy=0;" edge="1" parent="1">
          <mxGeometry width="50" height="50" relative="1" as="geometry">
            <mxPoint x="520" y="539.8299999999999" as="sourcePoint"/>
            <mxPoint x="560" y="539.8299999999999" as="targetPoint"/>
          </mxGeometry>
        </mxCell>
        <mxCell id="ekykvrXrYyQtkSd145x7-94" value="" style="endArrow=none;html=1;" edge="1" parent="1">
          <mxGeometry width="50" height="50" relative="1" as="geometry">
            <mxPoint x="530" y="500" as="sourcePoint"/>
            <mxPoint x="530" y="40" as="targetPoint"/>
          </mxGeometry>
        </mxCell>
        <mxCell id="ekykvrXrYyQtkSd145x7-95" value="" style="endArrow=none;html=1;entryX=0;entryY=0.25;entryDx=0;entryDy=0;" edge="1" parent="1">
          <mxGeometry width="50" height="50" relative="1" as="geometry">
            <mxPoint x="530" y="500" as="sourcePoint"/>
            <mxPoint x="560" y="499.8" as="targetPoint"/>
          </mxGeometry>
        </mxCell>
        <mxCell id="ekykvrXrYyQtkSd145x7-96" value="" style="endArrow=none;html=1;entryX=0;entryY=0.25;entryDx=0;entryDy=0;" edge="1" parent="1">
          <mxGeometry width="50" height="50" relative="1" as="geometry">
            <mxPoint x="530" y="380.2" as="sourcePoint"/>
            <mxPoint x="560" y="379.99999999999994" as="targetPoint"/>
          </mxGeometry>
        </mxCell>
        <mxCell id="ekykvrXrYyQtkSd145x7-97" value="" style="endArrow=none;html=1;entryX=0;entryY=0.25;entryDx=0;entryDy=0;" edge="1" parent="1">
          <mxGeometry width="50" height="50" relative="1" as="geometry">
            <mxPoint x="530" y="260.08" as="sourcePoint"/>
            <mxPoint x="560" y="259.87999999999994" as="targetPoint"/>
          </mxGeometry>
        </mxCell>
        <mxCell id="ekykvrXrYyQtkSd145x7-98" value="" style="endArrow=none;html=1;entryX=0;entryY=0.25;entryDx=0;entryDy=0;" edge="1" parent="1">
          <mxGeometry width="50" height="50" relative="1" as="geometry">
            <mxPoint x="530" y="140.2" as="sourcePoint"/>
            <mxPoint x="560" y="139.99999999999994" as="targetPoint"/>
          </mxGeometry>
        </mxCell>
        <mxCell id="ekykvrXrYyQtkSd145x7-99" value="M" style="text;html=1;align=center;verticalAlign=middle;resizable=0;points=[];;autosize=1;" vertex="1" parent="1">
          <mxGeometry x="515" y="20" width="30" height="20" as="geometry"/>
        </mxCell>
        <mxCell id="ekykvrXrYyQtkSd145x7-100" value="T" style="text;html=1;align=center;verticalAlign=middle;resizable=0;points=[];;autosize=1;" vertex="1" parent="1">
          <mxGeometry x="610" y="130" width="20" height="20" as="geometry"/>
        </mxCell>
        <mxCell id="ekykvrXrYyQtkSd145x7-101" value="T" style="text;html=1;align=center;verticalAlign=middle;resizable=0;points=[];;autosize=1;" vertex="1" parent="1">
          <mxGeometry x="610" y="250" width="20" height="20" as="geometry"/>
        </mxCell>
        <mxCell id="ekykvrXrYyQtkSd145x7-102" value="T" style="text;html=1;align=center;verticalAlign=middle;resizable=0;points=[];;autosize=1;" vertex="1" parent="1">
          <mxGeometry x="610" y="370" width="20" height="20" as="geometry"/>
        </mxCell>
        <mxCell id="ekykvrXrYyQtkSd145x7-103" value="T" style="text;html=1;align=center;verticalAlign=middle;resizable=0;points=[];;autosize=1;" vertex="1" parent="1">
          <mxGeometry x="610" y="490" width="20" height="20" as="geometry"/>
        </mxCell>
      </root>
    </mxGraphModel>
  </diagram>
</mxfile>
